PathFileType	4	(X/Y/Z)	58_2_81_p0_0-168.trc
DataRate	CameraRate	NumFrames	NumMarkers	Units	OrigDataRate	OrigDataStartFrame	OrigNumFrames
48.0	48.0	5	27	m	48.0	126	169
Frame#	Time	RHip			RKnee			RAnkle			RBigToe			RSmallToe			RHeel			LHip			LKnee			LAnkle			LBigToe			LSmallToe			LHeel			Neck			Head			Nose			RShoulder			RElbow			RWrist			RThumb			RIndex			RPinky			LShoulder			LElbow			LWrist			LThumb			LIndex			LPinky			
		X1	Y1	Z1	X2	Y2	Z2	X3	Y3	Z3	X4	Y4	Z4	X5	Y5	Z5	X6	Y6	Z6	X7	Y7	Z7	X8	Y8	Z8	X9	Y9	Z9	X10	Y10	Z10	X11	Y11	Z11	X12	Y12	Z12	X13	Y13	Z13	X14	Y14	Z14	X15	Y15	Z15	X16	Y16	Z16	X17	Y17	Z17	X18	Y18	Z18	X19	Y19	Z19	X20	Y20	Z20	X21	Y21	Z21	X22	Y22	Z22	X23	Y23	Z23	X24	Y24	Z24	X25	Y25	Z25	X26	Y26	Z26	X27	Y27	Z27	
126	2.625	0.33614105444312864	0.45973959750452736	1.1060594698082413	0.31523822699827003	0.6018945913402282	1.5076346256563165	0.3133615719983297	0.7461841021820853	1.908363528535066	0.2899962754347886	0.5763952986107193	1.9578864534749187	0.3463951402573052	0.5944075321067139	1.950763250603787	0.29294488868801427	0.8414760008445594	1.9727235864138646	0.1412235796377003	0.5112264887977621	1.1199249061489704	0.13990535550898703	0.6461479993971193	1.5102158682760447	0.12709037209054552	0.741734553313641	1.9016435004054368	0.13023295450582165	0.5673237351038298	1.9434573158707928	0.07895363735183257	0.6108128213051008	1.943892495622149	0.14931460627522608	0.7991486710611642	1.9535315345441704	0.2357866304517282	0.4157874874612266	0.5439188123509258	0.23392693673294138	0.3359080904753128	0.32433374718310315	0.22457451981460835	0.28701559982956937	0.4430507714390626	0.3820441980144966	0.43335687409781465	0.626440133621105	0.44394314914869004	0.5194314848978855	0.87912371099734	0.3453438261672413	0.2838195206527507	0.9518660953374128	0.2640555070507084	0.2421887386868642	0.9731539698539383	0.2684157134818227	0.2269037688061564	0.9830523503221807	0.29301051635637965	0.1976129965113198	1.0023088075501783	0.07182397430615911	0.4184297100503344	0.6237345240551673	-0.011578520685090054	0.5094574432260228	0.8804893328101856	0.10276131535208498	0.31485781639759536	0.976586961669457	0.1870150891348075	0.24890979444930658	1.0000322579732588	0.1897924234120221	0.20569010479587804	1.0140552502639135	0.1627564044073219	0.2611048391281937	1.0682762597258981
127	2.6458333333333335	0.3361372155941727	0.4597588477913912	1.1063975325658848	0.3163250114246874	0.6046714260934222	1.5124625067141033	0.31238995217345716	0.748113217703396	1.9132627822513562	0.28896985364584776	0.573889766070053	1.952956088861542	0.34539669268312334	0.5919603242220084	1.9459149657260393	0.2929190635168274	0.8415735202653382	1.9728026985889144	0.1414944998783133	0.5107713516469528	1.1201096221273783	0.14093712469921474	0.644761621855463	1.5060901064236563	0.12595481291130614	0.7387546479401809	1.896225883762142	0.12931256574565814	0.5688567512666177	1.9475754885303918	0.07795145513277303	0.6119677274434366	1.9480969102438652	0.14748037374085446	0.7984487555932702	1.954641861523987	0.23583245106345227	0.4157842497551171	0.5439841768067404	0.23375796045240085	0.33647910825451943	0.3209643597923027	0.2246241957133149	0.2868583306155704	0.4430630280247327	0.381993663153772	0.4334055083112128	0.6264752258935467	0.4394423044538802	0.5078981358129215	0.8841572028210095	0.3411114446772452	0.2958124798456388	0.9686308451663665	0.2597474064450193	0.240745706480478	0.980641113072475	0.25706647104579183	0.21513327846378902	0.9886716373179749	0.2751734647270227	0.21101200798332773	1.0205549571678167	0.07188503877711913	0.4184821613550839	0.6237823895031935	-0.006964714480055495	0.49390434304696007	0.875346556636338	0.10775582618037136	0.3035166891686656	0.9900480912803863	0.18654047547946742	0.25342435345928077	1.0111316632370533	0.18765719048336815	0.2247386459800557	1.0439290258444371	0.16563521887309363	0.23860477920475623	1.0732559041110967
128	2.6666666666666665	0.3479894959130302	0.4596278478102472	1.1055373618414728	0.3196190427516777	0.6201121618662008	1.5217905904174482	0.31736289285087027	0.7491456332864243	1.913425409068097	0.29008098173496866	0.5766593425844131	1.9580080409342195	0.3465514516754889	0.5947749520200833	1.950973211695426	0.29300533693944114	0.8416526207071225	1.9731544147308078	0.14107744418974463	0.5117507967423582	1.1160238731124115	0.13994628180825067	0.6468448201220921	1.5104893168829605	0.1259666081354513	0.7390605842525084	1.8963126025527186	0.1328090445104599	0.583587638582872	1.94551430972888	0.07804701075427907	0.612457462563927	1.9483719825907195	0.1475947823858384	0.7992357055447511	1.9549840641097687	0.23579947467521717	0.415835199073619	0.5439212961862211	0.2337984539559082	0.33649363216852785	0.320916927928746	0.22461237950230886	0.28654200188496753	0.4430681976092397	0.3818266448378818	0.43309521120361316	0.6263742070953793	0.4390837825397372	0.5208366626008718	0.8809822871958821	0.3287118399360009	0.3092447735842153	0.9815193873362903	0.2592216756565995	0.24363116262050627	1.003726908858911	0.24489313807260393	0.23024480939357547	1.0174665171204553	0.2624072517639879	0.23527177181728157	1.0502340682197084	0.07179317411034736	0.4182427089422814	0.6237551352091366	-0.006427053513172607	0.4953992669372988	0.8788262608260766	0.11115669781457979	0.3182219849662867	0.9930966243775133	0.19605389140810608	0.27297557362424274	1.0242517327193625	0.1952169419911174	0.24125041218289797	1.0571736127565343	0.17152675118917807	0.24907313006478649	1.0815876525389971
129	2.6875	0.3447180381850178	0.44892849867848966	1.1080149885717827	0.31567921198075183	0.6064726320214656	1.5178657019431148	0.3163612148702389	0.7639540203435066	1.919390055807372	0.28888836615868024	0.5743168305989556	1.9530338031696686	0.3491669622281505	0.6054162533882883	1.9516259922014154	0.2928979530776405	0.8416278993817452	1.9728741272719221	0.1412889660232264	0.5110722129102259	1.1163165860731585	0.14004171251297642	0.6468252549617174	1.5104342483325297	0.12660110675663586	0.7416783267381473	1.9011538774652326	0.12981814861887395	0.5692723059602844	1.9394063209746915	0.07792013153743706	0.6116331394161372	1.9477436760356146	0.14851082617276076	0.7999263128744569	1.9487280678058847	0.23581865894276402	0.4158522177428782	0.5438803566131849	0.23742465076371783	0.32470220930609955	0.32198487304132206	0.22465704325047203	0.2866814366102815	0.4430749574861071	0.38194295449611465	0.4330164896930057	0.6264577314269139	0.43487460930509597	0.5081157696805384	0.8803797915991709	0.33006044869114654	0.3043124448476289	0.9921577850188471	0.26053117591463476	0.25228790235600074	1.0285489211143435	0.2510226910741312	0.23800902659952286	1.051002935044717	0.26614545238941145	0.2387163385453173	1.0619991265462714	0.07196969085696012	0.4177083658601087	0.6273538893006787	-0.006295717565143811	0.4951428778979178	0.8784128149002264	0.11945056556452531	0.30670424076156433	0.9986653316691619	0.1969419171208928	0.27659597906787775	1.0397496917055709	0.2000561878253308	0.22644573686827082	1.0659969112484844	0.17098858264474595	0.24995366887920908	1.088395868285064
130	2.7083333333333335	0.3447645868627595	0.47793043818485004	1.1087076727998952	0.3166983161092271	0.6094680491526786	1.5230416560060984	0.3163913590874643	0.7641269822445805	1.9194058453305614	0.289875300528166	0.5767521413527519	1.9578833397941835	0.3501554814013982	0.6078858845501355	1.9564892397133442	0.2972986537565912	0.8577176268442135	1.9791717035770262	0.1454712809737618	0.49888871095157	1.1134010223416941	0.14104476507641595	0.6488662348783244	1.5202858755582536	0.12685823038070967	0.7424470406090046	1.9020164787908276	0.12982385732758978	0.5691768561722788	1.9394963257970754	0.07797685469561957	0.6120359667547521	1.9481675780737653	0.14258016142020383	0.7955296651702418	1.9567586470391487	0.2358372415197353	0.41585002636565904	0.5439435032303152	0.23380463890832565	0.33644229399615005	0.32098713368086423	0.2246666258272801	0.28665221540991664	0.4430917990677473	0.38178650586563384	0.43455083835984076	0.6304217055951267	0.43814001915378514	0.491906441556047	0.8919031159878655	0.3053262993283545	0.2784931239532507	1.0003509836825815	0.23142309207820902	0.2331595194698217	1.045813301997251	0.22371456919143037	0.19481840042463452	1.0594392620950888	0.22093626289097176	0.18561358275227824	1.0615796730974474	0.07188549252767325	0.41755361200965746	0.627365657479345	-0.0009452721066849323	0.48355607457908556	0.8813812451528141	0.11934773135437919	0.30598611278519866	1.005859513691555	0.20074590817151083	0.2635504574994112	1.0381480927273026	0.20452973171993424	0.21334257142089066	1.0677647742925447	0.17090432390905747	0.2529453705752979	1.1029152219586256
